<mxfile host="app.diagrams.net" modified="2023-02-24T08:48:01.569Z" agent="5.0 (X11; Linux x86_64) AppleWebKit/537.36 (KHTML, like Gecko) Chrome/110.0.0.0 Safari/537.36" etag="qTgen1RglRWLzEnQLzqe" version="20.8.23" type="github">
  <diagram id="C5RBs43oDa-KdzZeNtuy" name="Page-1">
    <mxGraphModel dx="1266" dy="529" grid="1" gridSize="10" guides="1" tooltips="1" connect="1" arrows="1" fold="1" page="1" pageScale="1" pageWidth="827" pageHeight="1169" math="0" shadow="0">
      <root>
        <mxCell id="WIyWlLk6GJQsqaUBKTNV-0" />
        <mxCell id="WIyWlLk6GJQsqaUBKTNV-1" parent="WIyWlLk6GJQsqaUBKTNV-0" />
        <mxCell id="6Cxe4tC6EuBDfeAt93wa-0" value="" style="group" vertex="1" connectable="0" parent="WIyWlLk6GJQsqaUBKTNV-1">
          <mxGeometry x="200" y="80" width="310" height="360" as="geometry" />
        </mxCell>
        <mxCell id="QFOWxkw5WgOZNFmuYzTW-0" value="start" style="ellipse;whiteSpace=wrap;html=1;" parent="6Cxe4tC6EuBDfeAt93wa-0" vertex="1">
          <mxGeometry width="120" height="40" as="geometry" />
        </mxCell>
        <mxCell id="QFOWxkw5WgOZNFmuYzTW-1" value="input 3 numbers" style="shape=parallelogram;perimeter=parallelogramPerimeter;whiteSpace=wrap;html=1;fixedSize=1;" parent="6Cxe4tC6EuBDfeAt93wa-0" vertex="1">
          <mxGeometry y="80" width="120" height="40" as="geometry" />
        </mxCell>
        <mxCell id="QFOWxkw5WgOZNFmuYzTW-2" value="" style="edgeStyle=orthogonalEdgeStyle;rounded=0;orthogonalLoop=1;jettySize=auto;html=1;" parent="6Cxe4tC6EuBDfeAt93wa-0" source="QFOWxkw5WgOZNFmuYzTW-0" target="QFOWxkw5WgOZNFmuYzTW-1" edge="1">
          <mxGeometry relative="1" as="geometry" />
        </mxCell>
        <mxCell id="QFOWxkw5WgOZNFmuYzTW-3" value="sort in a list" style="rounded=0;whiteSpace=wrap;html=1;" parent="6Cxe4tC6EuBDfeAt93wa-0" vertex="1">
          <mxGeometry y="160" width="120" height="40" as="geometry" />
        </mxCell>
        <mxCell id="QFOWxkw5WgOZNFmuYzTW-7" value="" style="edgeStyle=orthogonalEdgeStyle;rounded=0;orthogonalLoop=1;jettySize=auto;html=1;" parent="6Cxe4tC6EuBDfeAt93wa-0" source="QFOWxkw5WgOZNFmuYzTW-1" target="QFOWxkw5WgOZNFmuYzTW-3" edge="1">
          <mxGeometry relative="1" as="geometry" />
        </mxCell>
        <mxCell id="QFOWxkw5WgOZNFmuYzTW-5" value="print the sorted numbers" style="shape=parallelogram;perimeter=parallelogramPerimeter;whiteSpace=wrap;html=1;fixedSize=1;rounded=0;" parent="6Cxe4tC6EuBDfeAt93wa-0" vertex="1">
          <mxGeometry y="240" width="120" height="40" as="geometry" />
        </mxCell>
        <mxCell id="QFOWxkw5WgOZNFmuYzTW-6" value="" style="edgeStyle=orthogonalEdgeStyle;rounded=0;orthogonalLoop=1;jettySize=auto;html=1;" parent="6Cxe4tC6EuBDfeAt93wa-0" source="QFOWxkw5WgOZNFmuYzTW-3" target="QFOWxkw5WgOZNFmuYzTW-5" edge="1">
          <mxGeometry relative="1" as="geometry" />
        </mxCell>
        <mxCell id="QFOWxkw5WgOZNFmuYzTW-8" value="stop" style="ellipse;whiteSpace=wrap;html=1;" parent="6Cxe4tC6EuBDfeAt93wa-0" vertex="1">
          <mxGeometry y="320" width="120" height="40" as="geometry" />
        </mxCell>
        <mxCell id="QFOWxkw5WgOZNFmuYzTW-10" value="" style="edgeStyle=orthogonalEdgeStyle;rounded=0;orthogonalLoop=1;jettySize=auto;html=1;" parent="6Cxe4tC6EuBDfeAt93wa-0" source="QFOWxkw5WgOZNFmuYzTW-5" target="QFOWxkw5WgOZNFmuYzTW-8" edge="1">
          <mxGeometry relative="1" as="geometry" />
        </mxCell>
        <mxCell id="QFOWxkw5WgOZNFmuYzTW-16" value="" style="edgeStyle=orthogonalEdgeStyle;rounded=0;orthogonalLoop=1;jettySize=auto;html=1;" parent="6Cxe4tC6EuBDfeAt93wa-0" source="QFOWxkw5WgOZNFmuYzTW-11" target="QFOWxkw5WgOZNFmuYzTW-1" edge="1">
          <mxGeometry relative="1" as="geometry" />
        </mxCell>
        <mxCell id="QFOWxkw5WgOZNFmuYzTW-11" value="" style="strokeWidth=2;html=1;shape=mxgraph.flowchart.annotation_2;align=left;labelPosition=right;pointerEvents=1;dashed=1;" parent="6Cxe4tC6EuBDfeAt93wa-0" vertex="1">
          <mxGeometry x="140" y="80" width="50" height="40" as="geometry" />
        </mxCell>
        <mxCell id="QFOWxkw5WgOZNFmuYzTW-12" value="numb_1 = int(input())" style="text;html=1;align=center;verticalAlign=middle;resizable=0;points=[];autosize=1;strokeColor=none;fillColor=none;" parent="6Cxe4tC6EuBDfeAt93wa-0" vertex="1">
          <mxGeometry x="160" y="85" width="140" height="30" as="geometry" />
        </mxCell>
        <mxCell id="QFOWxkw5WgOZNFmuYzTW-15" value="" style="edgeStyle=orthogonalEdgeStyle;rounded=0;orthogonalLoop=1;jettySize=auto;html=1;" parent="6Cxe4tC6EuBDfeAt93wa-0" source="QFOWxkw5WgOZNFmuYzTW-13" target="QFOWxkw5WgOZNFmuYzTW-3" edge="1">
          <mxGeometry relative="1" as="geometry" />
        </mxCell>
        <mxCell id="QFOWxkw5WgOZNFmuYzTW-13" value="" style="strokeWidth=2;html=1;shape=mxgraph.flowchart.annotation_2;align=left;labelPosition=right;pointerEvents=1;dashed=1;" parent="6Cxe4tC6EuBDfeAt93wa-0" vertex="1">
          <mxGeometry x="140" y="160" width="50" height="40" as="geometry" />
        </mxCell>
        <mxCell id="QFOWxkw5WgOZNFmuYzTW-14" value="numb_sorted = sorted()" style="text;html=1;align=center;verticalAlign=middle;resizable=0;points=[];autosize=1;strokeColor=none;fillColor=none;" parent="6Cxe4tC6EuBDfeAt93wa-0" vertex="1">
          <mxGeometry x="160" y="165" width="150" height="30" as="geometry" />
        </mxCell>
        <mxCell id="QFOWxkw5WgOZNFmuYzTW-18" value="" style="edgeStyle=orthogonalEdgeStyle;rounded=0;orthogonalLoop=1;jettySize=auto;html=1;" parent="6Cxe4tC6EuBDfeAt93wa-0" source="QFOWxkw5WgOZNFmuYzTW-17" target="QFOWxkw5WgOZNFmuYzTW-5" edge="1">
          <mxGeometry relative="1" as="geometry" />
        </mxCell>
        <mxCell id="QFOWxkw5WgOZNFmuYzTW-17" value="" style="strokeWidth=2;html=1;shape=mxgraph.flowchart.annotation_2;align=left;labelPosition=right;pointerEvents=1;dashed=1;" parent="6Cxe4tC6EuBDfeAt93wa-0" vertex="1">
          <mxGeometry x="140" y="240" width="50" height="40" as="geometry" />
        </mxCell>
        <mxCell id="QFOWxkw5WgOZNFmuYzTW-19" value="print(numb_sorted)" style="text;html=1;align=center;verticalAlign=middle;resizable=0;points=[];autosize=1;strokeColor=none;fillColor=none;" parent="6Cxe4tC6EuBDfeAt93wa-0" vertex="1">
          <mxGeometry x="170" y="245" width="120" height="30" as="geometry" />
        </mxCell>
      </root>
    </mxGraphModel>
  </diagram>
</mxfile>
